<?xml version="1.0" encoding="UTF-8"?>
<svg version="1.1" xmlns="http://www.w3.org/2000/svg" width="85" height="73">
<path d="M0 0 C28.05 0 56.1 0 85 0 C85 24.09 85 48.18 85 73 C56.95 73 28.9 73 0 73 C0 48.91 0 24.82 0 0 Z " fill="#F0EAD0" transform="translate(0,0)"/>
<path d="M0 0 C4.18524749 -0.08206368 7.91081136 0.15810822 12 1 C12.33 0.67 12.66 0.34 13 0 C19.17435496 0.34949179 19.17435496 0.34949179 22.0625 2.625 C22.701875 3.40875 23.34125 4.1925 24 5 C24.50789063 5.49628906 25.01578125 5.99257813 25.5390625 6.50390625 C29.50201183 10.55137346 30.69301543 13.51805255 30.89453125 19.1796875 C30.79874803 21.02042195 30.79874803 21.02042195 32 22 C32.53232238 28.17493966 31.63049918 31.88863931 28 37 C27.649375 37.57234375 27.29875 38.1446875 26.9375 38.734375 C25.24144458 41.20778916 23.68033377 42.79601986 20.78515625 43.6640625 C16.4828641 44.26373369 14.73293774 44.48862516 11 42 C9.14733927 42.29485154 9.14733927 42.29485154 7 43 C2.23818671 43.95236266 -0.69836266 44.37098121 -5 42 C-6.765625 39.43359375 -6.765625 39.43359375 -8.25 36.4375 C-9.79988162 32.99490006 -9.79988162 32.99490006 -12 30 C-12.1328125 28.1875 -12.1328125 28.1875 -12.125 26 C-12.12757812 25.278125 -12.13015625 24.55625 -12.1328125 23.8125 C-12 22 -12 22 -11 21 C-10.72986562 19.44085483 -10.48392925 17.87748669 -10.25 16.3125 C-9.27276441 11.13019003 -7.64644551 8.73760664 -4 5 C-3.34 4.01 -2.68 3.02 -2 2 C-1.34 2 -0.68 2 0 2 C0 1.34 0 0.68 0 0 Z " fill="#6735CB" transform="translate(35,15)"/>
<path d="M0 0 C4.55555556 0.55555556 4.55555556 0.55555556 6 2 C6.04080783 3.99958364 6.04254356 6.00045254 6 8 C6.61875 7.79375 7.2375 7.5875 7.875 7.375 C8.57625 7.25125 9.2775 7.1275 10 7 C10.66 7.66 11.32 8.32 12 9 C11.814375 10.134375 11.62875 11.26875 11.4375 12.4375 C11.2209375 14.2009375 11.2209375 14.2009375 11 16 C12.41666667 17.58333333 12.41666667 17.58333333 14 19 C14.5 22 14.5 22 14 25 C11.625 26.8125 11.625 26.8125 9 28 C8.34 28.33 7.68 28.66 7 29 C7 29.66 7 30.32 7 31 C7.66 31.33 8.32 31.66 9 32 C8.67 32.99 8.34 33.98 8 35 C2.67961165 36.33009709 2.67961165 36.33009709 -0.1875 34.9375 C-2 33 -2 33 -2.390625 29.86328125 C-2.34421875 28.69152344 -2.2978125 27.51976562 -2.25 26.3125 C-2.21390625 25.13300781 -2.1778125 23.95351563 -2.140625 22.73828125 C-2.09421875 21.83464844 -2.0478125 20.93101563 -2 20 C-0.35 20.33 1.3 20.66 3 21 C3 20.34 3 19.68 3 19 C2.175 18.38125 1.35 17.7625 0.5 17.125 C-1.65770786 15.10176685 -1.99048687 14.06917803 -2.40234375 11.07421875 C-2.43559184 7.98953502 -2.42884292 5.05607008 -2 2 C-1.34 1.34 -0.68 0.68 0 0 Z " fill="#EBE3D0" transform="translate(49,19)"/>
<path d="M0 0 C4.55555556 0.55555556 4.55555556 0.55555556 6 2 C6.43343319 6.96781116 6.65086877 11.52075279 4.625 16.125 C3 18 3 18 1 19 C1 19.66 1 20.32 1 21 C2.65 20.67 4.3 20.34 6 20 C6.1080023 22.10304477 6.18558987 24.20766909 6.25 26.3125 C6.29640625 27.48425781 6.3428125 28.65601563 6.390625 29.86328125 C6 33 6 33 4.1796875 34.92578125 C1.0900722 36.44844112 -0.75806621 35.9866755 -4 35 C-4.66 34.01 -5.32 33.02 -6 32 C-5.01 31.67 -4.02 31.34 -3 31 C-3 30.34 -3 29.68 -3 29 C-4.4540625 28.4740625 -4.4540625 28.4740625 -5.9375 27.9375 C-9 26 -9 26 -10.0625 22.5 C-10 19 -10 19 -8.625 17.25 C-8.08875 16.8375 -7.5525 16.425 -7 16 C-6.67 15.01 -6.34 14.02 -6 13 C-6.66 13 -7.32 13 -8 13 C-7.67 11.35 -7.34 9.7 -7 8 C-5.33333333 8 -3.66666667 8 -2 8 C-2.04125 7.05125 -2.0825 6.1025 -2.125 5.125 C-2 2 -2 2 0 0 Z " fill="#EBE4D0" transform="translate(37,19)"/>
</svg>
